<?xml version="1.0" standalone="no"?>
<!DOCTYPE svg PUBLIC "-//W3C//DTD SVG 20010904//EN"
 "http://www.w3.org/TR/2001/REC-SVG-20010904/DTD/svg10.dtd">
<svg version="1.0" xmlns="http://www.w3.org/2000/svg"
 width="730.000000pt" height="730.000000pt" viewBox="0 0 730.000000 730.000000"
 preserveAspectRatio="xMidYMid meet">

<g transform="translate(0.000000,730.000000) scale(0.100000,-0.100000)"
fill="#000000" stroke="none">
<path d="M4127 5429 c-42 -10 -93 -34 -101 -48 -4 -5 11 -15 31 -22 52 -16 93
-47 93 -69 0 -15 -10 -19 -62 -22 -35 -2 -99 4 -143 13 -44 9 -105 21 -135 27
l-55 11 80 -3 80 -3 -45 13 c-25 8 -70 17 -100 20 -30 4 -66 13 -79 21 -18 12
-37 14 -75 8 -28 -3 -57 -7 -64 -7 -27 -2 -4 -23 31 -29 21 -3 41 -9 45 -14 4
-4 -10 -5 -30 -2 -21 3 -38 2 -38 -2 0 -4 73 -15 161 -25 89 -10 172 -22 186
-27 21 -8 22 -12 12 -30 -10 -19 -8 -25 12 -40 l24 -19 -22 0 c-13 0 -23 -4
-23 -10 0 -11 38 -33 48 -27 4 3 18 0 32 -6 24 -10 24 -10 -15 -18 -22 -4
-121 -8 -219 -8 -99 -1 -176 -4 -173 -8 4 -3 2 -12 -5 -20 -6 -7 -8 -17 -4
-21 10 -9 247 -9 391 0 244 15 316 17 345 6 17 -5 30 -14 30 -19 0 -18 -26
-20 -68 -5 -55 20 -118 9 -210 -38 -115 -58 -270 -192 -357 -308 -36 -49 -45
-55 -55 -43 -7 8 -29 15 -49 15 -42 0 -237 52 -281 75 -36 19 -46 5 -26 -35
12 -26 12 -30 0 -30 -8 0 -14 -7 -14 -15 0 -8 -6 -12 -14 -9 -11 4 -12 12 -4
35 13 37 8 42 -25 30 -19 -8 -38 -6 -68 4 -23 9 -51 12 -62 9 -12 -4 -17 -2
-13 4 6 10 -215 89 -269 97 -11 1 -22 4 -25 5 -3 1 -18 1 -35 0 -16 0 -40 -1
-52 -2 -13 0 -41 -17 -62 -37 -30 -29 -39 -43 -34 -60 6 -23 21 -37 30 -27 3
3 0 13 -8 22 -12 14 -10 19 14 39 22 20 36 23 79 20 29 -2 66 -6 81 -10 20 -5
27 -4 25 5 -3 14 40 21 48 8 3 -4 13 -8 22 -8 9 0 33 -16 52 -35 19 -19 40
-35 46 -35 7 0 62 -16 123 -36 112 -37 148 -63 69 -50 -33 5 -39 4 -31 -6 11
-14 22 -108 13 -108 -3 0 -60 18 -125 41 -123 42 -233 62 -440 79 -60 5 -150
14 -200 19 -49 6 -104 11 -121 11 l-31 0 -83 -217 c-112 -295 -270 -739 -270
-757 0 -18 35 -44 320 -242 l215 -148 254 -103 c140 -57 271 -108 292 -113 32
-9 38 -15 42 -43 l4 -32 1 33 c2 31 4 33 35 27 17 -3 91 -14 162 -26 72 -12
133 -25 136 -30 7 -12 104 -39 137 -39 12 0 22 4 22 8 0 16 34 9 55 -10 11
-11 35 -29 53 -40 32 -20 35 -20 70 -4 51 23 78 65 162 251 96 213 101 226
149 400 23 83 49 167 57 189 20 51 9 60 -12 10 -9 -21 -19 -33 -21 -26 -3 7
15 54 40 105 48 98 56 119 63 170 l4 32 -41 -48 -41 -48 -22 43 c-19 39 -36
54 -112 100 -16 10 -56 34 -89 55 -33 20 -63 41 -67 47 -11 15 -10 28 1 22 12
-8 41 3 41 15 0 5 -19 7 -41 4 -35 -4 -51 1 -103 32 -33 20 -63 40 -66 43 -3
3 -22 16 -42 29 -33 20 -37 26 -31 49 3 15 13 37 21 49 7 12 12 28 10 34 -2 7
-19 -11 -37 -40 -39 -60 -51 -60 -27 -1 9 23 14 46 11 51 -4 5 3 9 14 9 13 0
32 17 51 45 18 27 39 45 50 45 12 0 46 32 88 83 136 161 261 267 379 319 l45
20 53 -22 c29 -12 66 -20 82 -17 l28 4 -32 8 c-33 8 -61 31 -50 42 4 3 29 -4
56 -16 27 -11 56 -21 65 -21 8 0 16 -4 18 -9 2 -5 36 -10 76 -13 l73 -4 15 54
c18 62 12 130 -14 162 -9 11 -33 28 -51 39 -20 10 -44 35 -55 56 -25 48 -91
114 -131 130 -45 19 -105 25 -148 14z m-952 -720 c5 -5 -5 -4 -23 2 -17 6 -32
13 -32 16 0 7 43 -8 55 -18z m265 -141 c0 -8 -89 29 -104 43 -5 5 16 -1 47
-14 31 -12 57 -25 57 -29z m183 -296 c20 -14 36 -27 33 -29 -4 -5 -116 65
-116 73 0 6 34 -12 83 -44z m-1092 -30 c-7 -2 -18 1 -23 6 -8 8 -4 9 13 5 13
-4 18 -8 10 -11z m1189 -38 c0 -2 -11 2 -25 8 -14 6 -25 15 -25 20 0 5 11 1
25 -8 14 -9 25 -18 25 -20z m95 -61 c20 -18 22 -21 5 -9 -14 9 -40 24 -57 33
-18 9 -33 21 -33 25 0 11 45 -15 85 -49z m-1381 -27 c-3 -15 -8 -25 -11 -23
-2 3 -1 17 3 31 3 15 8 25 11 23 2 -3 1 -17 -3 -31z m286 -76 c25 -25 25 -45
-1 -128 -24 -75 -61 -122 -97 -122 -33 0 -82 52 -82 87 0 44 29 135 51 158 26
29 102 32 129 5z m-318 -28 c3 -11 0 -19 -7 -19 -7 0 -10 8 -7 19 2 10 6 18 7
18 1 0 5 -8 7 -18z m1708 -32 c0 -6 -16 -42 -35 -81 -19 -39 -47 -110 -62
-158 -15 -47 -29 -78 -31 -68 -5 26 65 246 91 284 22 33 37 42 37 23z m-1719
-32 c-5 -13 -16 -30 -25 -37 -13 -11 -14 -9 -6 20 9 29 29 53 37 45 2 -2 -1
-14 -6 -28z m622 5 c23 -22 22 -52 -9 -139 -39 -108 -82 -137 -138 -93 -41 32
-48 60 -30 121 23 78 42 114 67 126 27 14 86 6 110 -15z m277 17 c8 -5 11 -10
5 -10 -5 0 -17 5 -25 10 -8 5 -10 10 -5 10 6 0 17 -5 25 -10z m108 -40 c3 0 3
-3 0 -6 -7 -6 -78 22 -78 31 0 3 16 -2 36 -10 20 -8 39 -15 42 -15z m-117 -77
c17 -10 33 -29 36 -42 7 -30 -40 -168 -69 -198 -30 -32 -73 -30 -109 6 -34 35
-36 57 -9 144 31 99 83 130 151 90z m304 7 c13 -6 15 -9 5 -9 -8 0 -22 4 -30
9 -18 12 -2 12 25 0z m-952 -125 c20 -8 38 -19 41 -24 7 -10 -75 17 -88 30 -6
5 -19 9 -31 9 -12 0 -30 7 -41 15 -17 13 -13 13 32 0 29 -8 68 -22 87 -30z
m938 12 c26 -18 34 -29 32 -50 -3 -38 -42 -146 -65 -179 -32 -46 -94 -34 -124
23 -18 35 -13 68 22 148 38 85 73 100 135 58z m-1046 -7 c3 -5 2 -10 -4 -10
-5 0 -13 5 -16 10 -3 6 -2 10 4 10 5 0 13 -4 16 -10z m-125 -10 c0 -5 -4 -10
-10 -10 -5 0 -10 5 -10 10 0 6 5 10 10 10 6 0 10 -4 10 -10z m110 -10 c13 0
13 -1 0 -10 -11 -7 -6 -8 17 -4 19 4 39 2 47 -5 7 -6 21 -9 30 -5 14 5 15 2 7
-19 -8 -21 -7 -25 4 -20 8 3 15 11 15 19 0 18 3 18 48 -3 20 -9 44 -16 52 -15
9 1 10 -1 3 -4 -10 -4 -10 -10 0 -25 14 -23 27 -25 27 -4 0 8 5 15 11 15 5 0
7 -5 4 -11 -4 -6 -1 -9 6 -7 8 1 34 -6 59 -17 25 -10 48 -19 53 -21 4 -1 10
-3 15 -4 4 -1 10 -2 15 -1 4 0 7 -6 7 -14 0 -11 7 -14 24 -9 26 6 37 -10 26
-40 -6 -17 -7 -18 -13 -3 -3 9 -2 17 4 17 6 0 7 5 4 10 -10 16 -25 2 -26 -23
0 -18 -3 -16 -15 11 -8 19 -19 30 -25 26 -8 -4 -7 -10 2 -16 10 -7 9 -8 -5 -4
-11 4 -23 0 -31 -10 -8 -12 -14 -14 -19 -6 -4 7 -2 12 4 12 6 0 8 5 5 10 -3 6
3 10 14 10 12 0 21 5 21 11 0 6 -9 8 -21 4 -14 -5 -25 -1 -36 12 -14 17 -14
17 -8 -2 12 -36 10 -40 -13 -37 -18 3 -22 -1 -20 -15 2 -12 -4 -19 -19 -21
-13 -2 -23 -8 -23 -13 0 -5 -7 -9 -16 -9 -9 0 -14 -6 -11 -13 9 -23 -8 -38
-41 -39 -25 -1 -30 -4 -21 -14 6 -7 8 -17 6 -21 -3 -5 3 -9 13 -10 10 -1 20 7
23 18 3 10 11 19 19 18 11 0 11 -1 0 -6 -10 -4 -7 -9 10 -17 29 -15 58 -9 59
13 0 9 5 1 10 -16 5 -18 14 -33 20 -33 6 0 8 -4 5 -9 -8 -13 4 -42 14 -36 5 3
8 -4 7 -15 -1 -18 -6 -20 -32 -14 -37 8 -39 10 -30 24 6 9 10 9 17 -1 6 -10 8
-3 6 20 -2 25 -9 36 -27 43 -18 6 -22 5 -18 -6 3 -8 -2 -16 -12 -19 -15 -3
-17 0 -13 17 5 20 5 20 -13 3 -13 -14 -15 -21 -6 -30 15 -15 14 -32 -1 -19 -7
5 -24 13 -38 17 -14 4 -47 17 -75 30 -27 12 -75 32 -105 44 -73 29 -103 52
-94 74 6 17 24 24 24 10 0 -5 9 -19 20 -33 l21 -25 -6 25 c-4 15 0 33 9 45 9
11 16 15 16 8 0 -7 6 -10 14 -7 8 3 12 13 9 24 -3 11 -2 28 1 37 6 15 8 15 16
3 8 -12 10 -11 10 4 0 20 0 20 15 0 13 -17 14 -17 15 -2 0 9 -5 20 -11 23 -6
4 -8 13 -6 19 3 7 -1 13 -9 13 -8 0 -13 -6 -10 -14 3 -7 1 -13 -4 -13 -6 0
-10 7 -10 15 0 18 -16 20 -24 3 -3 -7 -3 -1 0 15 4 16 2 27 -5 27 -6 0 -11 -6
-11 -12 0 -9 -3 -8 -9 2 -6 8 -7 18 -5 22 3 4 -2 8 -10 8 -9 0 -16 -4 -16 -10
0 -5 -4 -10 -10 -10 -14 0 -13 26 3 51 8 13 19 18 32 15 11 -3 27 -6 35 -6z
m387 -91 c54 -22 127 -50 163 -61 36 -12 60 -23 53 -25 -13 -5 -145 39 -218
73 -28 12 -63 26 -78 29 -27 7 -47 25 -28 25 6 0 55 -18 108 -41z m-448 -79
c1 -13 0 -13 -9 0 -5 8 -9 26 -9 40 l1 25 8 -25 c4 -14 8 -32 9 -40z m-55 38
c-4 -6 1 -17 11 -25 21 -14 8 -18 -14 -4 -13 8 -9 41 4 41 4 0 3 -5 -1 -12z
m101 -18 c-4 -11 -2 -20 4 -20 6 0 11 -4 11 -9 0 -5 -7 -8 -15 -7 -9 1 -15 6
-15 12 1 16 11 44 16 44 3 0 2 -9 -1 -20z m-224 -7 c13 -15 12 -15 -8 -4 -24
12 -29 21 -14 21 5 0 15 -7 22 -17z m53 -28 c11 -8 15 -15 10 -15 -6 0 -19 7
-30 15 -10 8 -14 14 -9 14 6 0 19 -6 29 -14z m80 -22 c3 -8 2 -22 -4 -31 -8
-14 -9 -13 -10 9 0 14 -6 31 -12 38 -11 10 -10 11 4 6 9 -4 19 -13 22 -22z
m756 17 c8 -5 11 -10 5 -10 -5 0 -17 5 -25 10 -8 5 -10 10 -5 10 6 0 17 -5 25
-10z m765 -50 c-10 -22 -20 -38 -22 -36 -2 2 4 22 13 45 9 23 19 39 22 37 3
-3 -3 -24 -13 -46z m-1458 18 c-3 -8 -6 -5 -6 6 -1 11 2 17 5 13 3 -3 4 -12 1
-19z m373 13 c0 -5 -7 -14 -15 -21 -16 -14 -18 -10 -9 14 6 17 24 22 24 7z
m233 -4 c3 -7 -3 -13 -14 -13 -13 0 -15 3 -7 13 6 7 12 13 13 13 2 0 5 -6 8
-13z m192 -18 c22 -10 33 -18 24 -18 -18 -1 -109 37 -109 45 0 7 34 -4 85 -27z
m-342 6 c4 0 7 -3 7 -7 0 -5 0 -12 0 -18 0 -16 -30 1 -31 19 0 12 -2 11 -8 -4
-5 -11 -7 -23 -4 -27 2 -5 -1 -8 -6 -8 -14 0 -14 16 0 41 6 12 15 17 22 12 7
-4 15 -8 20 -8z m87 -2 c0 -5 -11 -13 -25 -20 -14 -6 -25 -8 -25 -4 0 5 10 13
23 19 28 14 27 13 27 5z m-177 -30 c-9 -7 -14 -14 -10 -14 4 -1 11 -2 16 -3
19 -2 23 -16 5 -17 -18 0 -18 -1 1 -9 28 -12 37 -12 30 0 -3 6 0 10 8 10 8 0
17 -7 21 -15 8 -23 -50 -19 -74 5 -24 24 -27 24 -47 5 -17 -18 -33 -11 -32 13
0 11 3 12 6 5 2 -7 9 -13 14 -13 6 0 7 5 4 10 -3 6 -2 10 4 10 6 0 8 6 6 13
-4 8 6 12 30 12 31 0 33 -2 18 -12z m554 -17 c29 -10 55 -21 57 -25 6 -10
-121 32 -131 43 -4 5 -1 7 7 4 8 -3 39 -13 67 -22z m-410 -22 c-3 -3 -12 -4
-19 -1 -8 3 -5 6 6 6 11 1 17 -2 13 -5z m-12 -24 c-3 -5 -12 -10 -18 -10 -7 0
-6 4 3 10 19 12 23 12 15 0z m51 -58 c-3 -5 -16 -12 -28 -15 l-23 -6 24 20
c23 19 39 20 27 1z m-146 4 c0 -3 -4 -8 -10 -11 -5 -3 -10 -1 -10 4 0 6 5 11
10 11 6 0 10 -2 10 -4z m-88 -24 c-7 -2 -10 -8 -7 -13 4 -5 -1 -6 -9 -3 -9 3
-16 10 -16 14 0 11 23 19 35 12 5 -3 4 -7 -3 -10z m141 -9 c-5 -12 -2 -15 10
-10 11 4 17 1 17 -8 0 -23 -18 -27 -42 -11 -12 9 -17 16 -10 16 6 0 12 7 12
15 0 8 4 15 10 15 5 0 6 -8 3 -17z m57 -23 c0 -5 -5 -10 -11 -10 -5 0 -7 5 -4
10 3 6 8 10 11 10 2 0 4 -4 4 -10z m-37 -30 c15 0 27 -4 27 -10 0 -15 -33 -12
-71 6 -25 11 -27 14 -9 10 14 -3 37 -6 53 -6z m57 6 c0 -3 -4 -8 -10 -11 -5
-3 -10 -1 -10 4 0 6 5 11 10 11 6 0 10 -2 10 -4z"/>
<path d="M2628 4023 c-9 -10 -25 -44 -37 -77 -20 -54 -20 -60 -6 -82 17 -26
47 -31 62 -11 5 6 20 39 32 73 17 47 20 66 12 87 -12 31 -41 35 -63 10z"/>
<path d="M2901 3914 c-29 -64 -42 -119 -35 -138 9 -23 53 -32 69 -15 14 16 55
134 55 160 0 20 -4 24 -42 33 -25 6 -29 2 -47 -40z"/>
<path d="M3202 3822 c-25 -25 -56 -124 -48 -155 8 -34 43 -45 66 -21 10 11 27
49 39 86 17 52 20 71 11 87 -13 26 -44 27 -68 3z"/>
<path d="M3496 3718 c-8 -13 -24 -48 -36 -78 -17 -42 -19 -59 -11 -77 22 -47
82 -21 97 42 4 17 13 42 20 57 30 60 -34 111 -70 56z"/>
<path d="M2656 3651 c-12 -5 -15 -10 -9 -14 6 -4 16 0 23 8 14 17 13 17 -14 6z"/>
<path d="M2778 3602 c-21 -4 -24 -22 -5 -22 7 0 21 6 31 13 19 14 10 17 -26 9z"/>
<path d="M2665 3583 c-11 -3 -24 -12 -28 -20 -5 -8 -17 -12 -30 -9 -12 3 -16
3 -9 0 6 -3 9 -10 6 -15 -3 -6 5 -7 21 -3 l27 7 -24 -24 c-21 -23 -24 -23 -33
-6 -10 16 -13 16 -30 2 -13 -10 -15 -14 -6 -13 8 2 16 -6 18 -17 3 -17 2 -18
-7 -5 -9 12 -11 10 -7 -13 3 -18 -1 -31 -12 -37 -12 -8 -8 -8 14 -3 26 6 28 4
17 -9 -7 -9 -9 -19 -5 -21 5 -3 14 7 21 23 9 18 18 27 27 23 9 -3 19 5 25 19
15 31 49 53 62 40 14 -14 36 -5 75 29 24 20 28 29 17 33 -8 3 -14 1 -14 -5 0
-6 -9 -8 -22 -4 -22 7 -22 6 -4 -7 22 -17 7 -27 -34 -22 -36 4 -38 5 -13 12
17 5 20 11 13 22 -7 10 -12 12 -17 4 -11 -16 -50 -27 -57 -15 -4 5 3 12 14 16
11 3 20 11 20 16 0 5 -1 8 -2 8 -2 -1 -12 -4 -23 -6z m15 -73 c-15 -10 -60
-14 -60 -5 0 6 64 23 70 18 2 -2 -2 -8 -10 -13z m-36 -35 c-7 -16 -24 -21 -24
-6 0 8 7 13 27 20 1 1 0 -6 -3 -14z"/>
<path d="M2515 3480 c3 -5 8 -10 11 -10 2 0 4 5 4 10 0 6 -5 10 -11 10 -5 0
-7 -4 -4 -10z"/>
<path d="M2685 3470 c-10 -11 -13 -20 -7 -20 7 0 15 -1 19 -2 3 -2 7 7 8 20 2
27 2 27 -20 2z"/>
<path d="M2518 3448 c5 -5 16 -8 23 -6 8 3 3 7 -10 11 -17 4 -21 3 -13 -5z"/>
<path d="M2615 3422 c-2 -2 3 -11 11 -20 13 -12 13 -16 2 -23 -8 -5 -9 -9 -2
-9 6 0 17 7 24 15 10 12 10 15 0 15 -7 0 -10 6 -7 13 5 13 -17 20 -28 9z"/>
<path d="M3548 5403 c7 -3 16 -2 19 1 4 3 -2 6 -13 5 -11 0 -14 -3 -6 -6z"/>
<path d="M3675 5400 c3 -5 8 -10 11 -10 2 0 4 5 4 10 0 6 -5 10 -11 10 -5 0
-7 -4 -4 -10z"/>
<path d="M2875 5319 c-22 -12 -52 -32 -67 -46 -41 -39 -105 -193 -80 -193 6 0
14 4 17 10 7 12 92 50 111 50 8 0 14 5 14 10 0 6 -11 8 -25 4 -19 -5 -25 -2
-25 11 0 10 5 13 12 9 7 -4 8 -3 4 4 -10 17 -12 16 -36 -24 -30 -48 -36 -36
-10 20 21 43 80 106 100 106 5 0 18 14 30 30 26 36 12 39 -45 9z"/>
<path d="M2850 5215 c-7 -9 -11 -17 -9 -20 3 -2 10 5 17 15 14 24 10 26 -8 5z"/>
<path d="M3501 5065 c-35 -77 -116 -165 -182 -201 -50 -28 -82 -64 -92 -104
-5 -22 -5 -23 7 -7 7 9 23 17 35 17 20 0 101 36 101 45 0 2 -15 -1 -32 -7 -70
-21 -71 -18 -5 17 116 61 192 157 212 268 11 58 -9 45 -44 -28z"/>
<path d="M4010 5021 c0 -5 5 -13 10 -16 6 -3 10 -2 10 4 0 5 -4 13 -10 16 -5
3 -10 2 -10 -4z"/>
<path d="M3517 4973 c-4 -3 -7 -11 -7 -17 0 -6 5 -5 12 2 6 6 9 14 7 17 -3 3
-9 2 -12 -2z"/>
<path d="M2970 4884 c0 -8 5 -12 10 -9 6 3 10 10 10 16 0 5 -4 9 -10 9 -5 0
-10 -7 -10 -16z"/>
<path d="M3015 4870 c3 -5 10 -10 16 -10 5 0 9 5 9 10 0 6 -7 10 -16 10 -8 0
-12 -4 -9 -10z"/>
<path d="M3050 4870 c0 -8 24 -20 41 -20 6 0 8 4 5 9 -8 12 -46 21 -46 11z"/>
<path d="M3145 4830 c3 -5 10 -10 16 -10 5 0 9 5 9 10 0 6 -7 10 -16 10 -8 0
-12 -4 -9 -10z"/>
<path d="M3200 4819 c0 -5 5 -7 10 -4 6 3 10 8 10 11 0 2 -4 4 -10 4 -5 0 -10
-5 -10 -11z"/>
<path d="M3600 4710 c8 -5 26 -9 40 -9 l25 1 -25 8 c-14 4 -32 8 -40 9 -13 1
-13 0 0 -9z"/>
<path d="M2645 4691 c-3 -6 4 -15 15 -21 22 -12 23 -10 14 14 -7 18 -20 21
-29 7z"/>
<path d="M3695 4630 c-3 -5 3 -10 14 -10 13 0 21 -7 21 -16 0 -10 6 -14 14
-11 8 3 16 1 18 -4 5 -16 106 -39 172 -39 70 0 70 10 -1 14 -26 2 -59 8 -73
14 -14 5 -46 16 -72 22 -28 7 -45 17 -41 23 3 5 1 7 -5 3 -6 -3 -13 -2 -17 4
-8 13 -22 13 -30 0z"/>
<path d="M4430 4587 c-63 -12 -71 -25 -15 -22 26 2 52 8 58 14 16 16 6 18 -43
8z"/>
<path d="M4115 4557 c-12 -10 -14 -16 -7 -21 7 -4 12 -2 12 3 0 6 7 11 15 11
8 0 15 5 15 10 0 14 -13 13 -35 -3z"/>
<path d="M4335 4550 c-3 -5 -2 -10 4 -10 5 0 13 5 16 10 3 6 2 10 -4 10 -5 0
-13 -4 -16 -10z"/>
<path d="M4000 4542 c0 -4 16 -6 35 -4 19 2 35 6 35 8 0 2 -16 4 -35 4 -19 0
-35 -4 -35 -8z"/>
<path d="M4265 4538 c-16 -6 -33 -16 -37 -22 -4 -6 -8 -7 -8 -3 0 4 -9 3 -19
-3 -14 -7 -21 -6 -24 3 -3 7 -6 4 -6 -7 -1 -13 3 -16 17 -11 9 4 26 8 37 10
36 7 95 30 95 37 0 10 -18 9 -55 -4z"/>
<path d="M4940 4320 c0 -11 2 -20 4 -20 2 0 6 9 9 20 3 11 1 20 -4 20 -5 0 -9
-9 -9 -20z"/>
<path d="M4148 4293 c-43 -47 -55 -83 -27 -83 7 0 69 92 69 103 0 14 -17 6
-42 -20z"/>
<path d="M4235 3808 c-41 -9 -51 -18 -84 -70 -91 -150 -201 -469 -201 -584 0
-60 36 -124 87 -155 20 -13 53 -37 72 -54 28 -25 42 -30 80 -29 31 1 119 -20
263 -62 120 -35 232 -64 250 -64 109 0 240 188 299 430 33 131 21 286 -26 330
-20 19 -180 88 -382 164 -47 18 -74 34 -78 47 -4 10 -18 25 -33 33 -31 16
-194 25 -247 14z m135 -18 c-8 -5 -19 -10 -25 -10 -5 0 -3 5 5 10 8 5 20 10
25 10 6 0 3 -5 -5 -10z m205 -90 c3 -5 -1 -10 -9 -10 -8 0 -18 5 -21 10 -3 6
1 10 9 10 8 0 18 -4 21 -10z m126 -65 c19 -8 27 -14 19 -14 -14 0 -72 28 -59
29 4 0 22 -7 40 -15z m-433 -540 c14 -14 -10 -14 -39 0 l-34 15 34 -5 c19 -3
37 -7 39 -10z"/>
<path d="M3023 2975 c0 -22 2 -30 4 -17 2 12 2 30 0 40 -3 9 -5 -1 -4 -23z"/>
<path d="M3719 2913 c-13 -16 -12 -17 4 -4 16 13 21 21 13 21 -2 0 -10 -8 -17
-17z"/>
<path d="M3013 2840 c0 -36 2 -50 4 -32 2 17 2 47 0 65 -2 17 -4 3 -4 -33z"/>
<path d="M3012 2575 c0 -16 2 -22 5 -12 2 9 2 23 0 30 -3 6 -5 -1 -5 -18z"/>
<path d="M3022 2505 c0 -16 2 -22 5 -12 2 9 2 23 0 30 -3 6 -5 -1 -5 -18z"/>
<path d="M2723 2289 c25 -16 49 -40 53 -52 9 -29 43 -66 72 -77 12 -5 22 -17
22 -27 0 -14 2 -15 9 -4 7 11 11 9 20 -8 7 -12 16 -19 22 -16 5 4 9 2 9 -4 0
-11 56 -41 77 -41 7 0 13 -4 13 -9 0 -5 17 -15 38 -22 20 -6 39 -15 42 -18 3
-4 16 -12 30 -19 14 -7 67 -35 119 -62 52 -28 100 -50 108 -50 7 0 13 -4 13
-10 0 -5 16 -10 35 -10 19 0 35 -3 35 -8 0 -4 27 -17 60 -30 51 -20 79 -23
209 -25 83 -1 151 -6 151 -11 0 -5 6 -4 13 2 7 6 22 11 32 11 26 0 166 29 173
36 3 3 -31 5 -74 5 -64 0 -97 6 -162 30 -45 16 -82 28 -82 25 0 -3 -22 9 -49
25 -26 17 -53 30 -59 30 -12 0 -169 61 -344 135 -106 44 -126 49 -117 33 12
-22 0 -19 -32 9 -35 29 -227 112 -393 169 -91 31 -99 30 -43 -7z"/>
<path d="M4207 2250 c-9 -17 -11 -32 -6 -36 5 -3 9 2 9 10 0 8 9 21 20 29 11
8 17 17 13 20 -12 13 -22 7 -36 -23z"/>
<path d="M4505 2186 c-11 -6 -24 -16 -30 -22 -5 -5 -31 -27 -58 -48 -26 -21
-57 -56 -68 -79 -12 -23 -28 -50 -37 -60 -29 -33 -3 -30 33 4 103 96 195 203
184 213 -2 2 -13 -1 -24 -8z"/>
<path d="M4270 1940 c-9 -6 -10 -10 -3 -10 6 0 15 5 18 10 8 12 4 12 -15 0z"/>
</g>
</svg>
